<?xml version="1.0" encoding="utf-8"?>
<!-- Generator: Adobe Illustrator 22.1.0, SVG Export Plug-In . SVG Version: 6.00 Build 0)  -->
<svg version="1.1" id="Layer_1" xmlns="http://www.w3.org/2000/svg" xmlns:xlink="http://www.w3.org/1999/xlink" x="0px" y="0px"
	 viewBox="0 0 1148.1 919" style="enable-background:new 0 0 1148.1 919;" xml:space="preserve">
<style type="text/css">
	.st0{fill:#E6E6E6;}
	.st1{fill:#FFFFFF;}
	.st2{fill:#1A2676;}
	.st3{fill:#293987;}
	.st4{fill:#0E1F60;}
	.st5{fill:#1B2C7C;}
	.st6{opacity:0.14;enable-background:new    ;}
	.st7{fill:#171D96;}
	.st8{fill:none;stroke:#CCCCCC;stroke-width:4;stroke-miterlimit:10;}
	.st9{fill:url(#SVGID_1_);}
	.st10{fill:none;stroke:#000000;stroke-width:2;stroke-linecap:round;stroke-miterlimit:10;}
	.st11{font-family:'Lato-Bold';}
	.st12{font-size:13.356px;}
	.st13{fill:#4A4CA2;}
	.st14{fill:#83D400;}
	.st15{fill:#595FC6;}
	.st16{fill:url(#SVGID_2_);}
	.st17{fill:#FFDD4D;}
	.st18{fill:#F3C743;}
	.st19{fill:url(#SVGID_3_);}
	.st20{fill:url(#SVGID_4_);}
	.st21{fill:url(#SVGID_5_);}
	.st22{fill:url(#SVGID_6_);}
	.st23{fill:url(#SVGID_7_);}
	.st24{fill:url(#SVGID_8_);}
	.st25{fill:url(#SVGID_9_);}
	.st26{font-size:10.5289px;}
	.st27{fill:none;}
	.st28{fill:#3538E5;}
	.st29{fill:#444584;}
	.st30{fill:#D8B10F;}
	.st31{fill:url(#SVGID_10_);}
	.st32{fill:url(#SVGID_11_);}
	.st33{fill:#5ABA1C;}
	.st34{fill:#5EBF1F;}
	.st35{fill:url(#SVGID_12_);}
	.st36{fill:#827BEE;}
	.st37{fill:url(#SVGID_13_);}
	.st38{fill:url(#SVGID_14_);}
	.st39{fill:#0071BC;}
	.st40{fill:url(#SVGID_15_);}
	.st41{fill:#EFEFEF;}
	.st42{fill:#29ABE2;}
	.st43{fill:#FF7BAC;}
	.st44{fill:url(#SVGID_16_);}
	.st45{fill:url(#SVGID_17_);}
	.st46{fill:url(#SVGID_18_);}
	.st47{fill:url(#SVGID_19_);}
	.st48{fill:#F4F4F4;}
	.st49{fill:#00A99D;}
	.st50{opacity:0.5;fill:none;stroke:#F4F4F4;stroke-miterlimit:10;enable-background:new    ;}
	.st51{fill:url(#SVGID_20_);}
	.st52{fill:url(#SVGID_21_);}
	.st53{fill:url(#SVGID_22_);}
	.st54{fill:url(#SVGID_23_);}
	.st55{fill:url(#SVGID_24_);}
	.st56{fill:url(#SVGID_25_);}
	.st57{fill:url(#SVGID_26_);}
	.st58{fill:url(#SVGID_27_);}
	.st59{fill:url(#SVGID_28_);}
	.st60{fill:url(#SVGID_29_);}
	.st61{fill:url(#SVGID_30_);}
	.st62{fill:url(#SVGID_31_);}
	.st63{fill:url(#SVGID_32_);}
	.st64{font-size:13.5019px;}
	.st65{fill:url(#SVGID_33_);}
	.st66{fill:#EFF1F5;}
	.st67{fill:#169DC1;}
	.st68{fill:#3CA8C6;}
	.st69{font-size:33.7818px;}
	.st70{fill:none;stroke:url(#SVGID_34_);stroke-width:2;stroke-miterlimit:10;}
</style>
<g>
	<g>
		<ellipse class="st0" cx="566" cy="602.1" rx="548.9" ry="274.5"/>
	</g>
</g>
<ellipse class="st1" cx="566" cy="585.2" rx="548.9" ry="274.5"/>
<g>
	<g>
		<path class="st2" d="M565.8,364l-7.9-4c-1.5-0.8-1.5-2,0-2.8l7.9-4c1.5-0.8,4-0.8,5.5,0l7.9,4c1.5,0.8,1.5,2,0,2.8l-7.9,4
			C569.8,364.8,567.3,364.8,565.8,364z"/>
		<path class="st2" d="M585,373.6l-7.9-4c-1.5-0.8-1.5-2,0-2.8l7.9-4c1.5-0.8,4-0.8,5.5,0l7.9,4c1.5,0.8,1.5,2,0,2.8l-7.9,4
			C589,374.4,586.6,374.4,585,373.6z"/>
		<path class="st2" d="M604.3,383.2l-7.9-4c-1.5-0.8-1.5-2,0-2.8l7.9-4c1.5-0.8,4-0.8,5.5,0l7.9,4c1.5,0.8,1.5,2,0,2.8l-7.9,4
			C608.3,384,605.8,384,604.3,383.2z"/>
		<path class="st2" d="M623.5,392.9l-7.9-4c-1.5-0.8-1.5-2,0-2.8l7.9-4c1.5-0.8,4-0.8,5.5,0l7.9,4c1.5,0.8,1.5,2,0,2.8l-7.9,4
			C627.5,393.6,625.1,393.6,623.5,392.9z"/>
		<path class="st2" d="M642.8,402.5l-7.9-4c-1.5-0.8-1.5-2,0-2.8l7.9-4c1.5-0.8,4-0.8,5.5,0l7.9,4c1.5,0.8,1.5,2,0,2.8l-7.9,4
			C646.8,403.3,644.3,403.3,642.8,402.5z"/>
		<path class="st2" d="M662.1,412.1l-7.9-4c-1.5-0.8-1.5-2,0-2.8l7.9-4c1.5-0.8,4-0.8,5.5,0l7.9,4c1.5,0.8,1.5,2,0,2.8l-7.9,4
			C666.1,412.9,663.6,412.9,662.1,412.1z"/>
		<path class="st2" d="M681.3,421.8l-7.9-4c-1.5-0.8-1.5-2,0-2.8l7.9-4c1.5-0.8,4-0.8,5.5,0l7.9,4c1.5,0.8,1.5,2,0,2.8l-7.9,4
			C685.3,422.5,682.8,422.5,681.3,421.8z"/>
		<path class="st2" d="M700.6,431.4l-7.9-4c-1.5-0.8-1.5-2,0-2.8l7.9-4c1.5-0.8,4-0.8,5.5,0l7.9,4c1.5,0.8,1.5,2,0,2.8l-7.9,4
			C704.6,432.2,702.1,432.2,700.6,431.4z"/>
		<path class="st2" d="M719.8,441l-7.9-4c-1.5-0.8-1.5-2,0-2.8l7.9-4c1.5-0.8,4-0.8,5.5,0l7.9,4c1.5,0.8,1.5,2,0,2.8l-7.9,4
			C723.8,441.8,721.4,441.8,719.8,441z"/>
		<path class="st2" d="M739.1,450.6l-7.9-4c-1.5-0.8-1.5-2,0-2.8l7.9-4c1.5-0.8,4-0.8,5.5,0l7.9,4c1.5,0.8,1.5,2,0,2.8l-7.9,4
			C743.1,451.4,740.6,451.4,739.1,450.6z"/>
		<path class="st2" d="M758.3,460.3l-7.9-4c-1.5-0.8-1.5-2,0-2.8l7.9-4c1.5-0.8,4-0.8,5.5,0l7.9,4c1.5,0.8,1.5,2,0,2.8l-7.9,4
			C762.3,461,759.9,461,758.3,460.3z"/>
		<path class="st2" d="M777.6,469.9l-7.9-4c-1.5-0.8-1.5-2,0-2.8l7.9-4c1.5-0.8,4-0.8,5.5,0l7.9,4c1.5,0.8,1.5,2,0,2.8l-7.9,4
			C781.6,470.7,779.1,470.7,777.6,469.9z"/>
		<path class="st2" d="M796.9,479.5l-7.9-4c-1.5-0.8-1.5-2,0-2.8l7.9-4c1.5-0.8,4-0.8,5.5,0l7.9,4c1.5,0.8,1.5,2,0,2.8l-7.9,4
			C800.9,480.3,798.4,480.3,796.9,479.5z"/>
		<path class="st2" d="M548.7,372.5l-7.9-4c-1.5-0.8-1.5-2,0-2.8l7.9-4c1.5-0.8,4-0.8,5.5,0l7.9,4c1.5,0.8,1.5,2,0,2.8l-7.9,4
			C552.7,373.3,550.2,373.3,548.7,372.5z"/>
		<path class="st2" d="M567.9,382.2l-7.9-4c-1.5-0.8-1.5-2,0-2.8l7.9-4c1.5-0.8,4-0.8,5.5,0l7.9,4c1.5,0.8,1.5,2,0,2.8l-7.9,4
			C571.9,382.9,569.5,382.9,567.9,382.2z"/>
		<path class="st2" d="M587.2,391.8l-7.9-4c-1.5-0.8-1.5-2,0-2.8l7.9-4c1.5-0.8,4-0.8,5.5,0l7.9,4c1.5,0.8,1.5,2,0,2.8l-7.9,4
			C591.2,392.6,588.7,392.6,587.2,391.8z"/>
		<path class="st2" d="M606.5,401.4l-7.9-4c-1.5-0.8-1.5-2,0-2.8l7.9-4c1.5-0.8,4-0.8,5.5,0l7.9,4c1.5,0.8,1.5,2,0,2.8l-7.9,4
			C610.5,402.2,608,402.2,606.5,401.4z"/>
		<path class="st2" d="M625.7,411l-7.9-4c-1.5-0.8-1.5-2,0-2.8l7.9-4c1.5-0.8,4-0.8,5.5,0l7.9,4c1.5,0.8,1.5,2,0,2.8l-7.9,4
			C629.7,411.8,627.2,411.8,625.7,411z"/>
		<path class="st2" d="M645,420.7l-7.9-4c-1.5-0.8-1.5-2,0-2.8l7.9-4c1.5-0.8,4-0.8,5.5,0l7.9,4c1.5,0.8,1.5,2,0,2.8l-7.9,4
			C649,421.4,646.5,421.4,645,420.7z"/>
		<path class="st2" d="M664.2,430.3l-7.9-4c-1.5-0.8-1.5-2,0-2.8l7.9-4c1.5-0.8,4-0.8,5.5,0l7.9,4c1.5,0.8,1.5,2,0,2.8l-7.9,4
			C668.2,431.1,665.8,431.1,664.2,430.3z"/>
		<path class="st2" d="M683.5,439.9l-7.9-4c-1.5-0.8-1.5-2,0-2.8l7.9-4c1.5-0.8,4-0.8,5.5,0l7.9,4c1.5,0.8,1.5,2,0,2.8l-7.9,4
			C687.5,440.7,685,440.7,683.5,439.9z"/>
		<path class="st2" d="M702.7,449.6l-7.9-4c-1.5-0.8-1.5-2,0-2.8l7.9-4c1.5-0.8,4-0.8,5.5,0l7.9,4c1.5,0.8,1.5,2,0,2.8l-7.9,4
			C706.7,450.3,704.3,450.3,702.7,449.6z"/>
		<path class="st2" d="M722,459.2l-7.9-4c-1.5-0.8-1.5-2,0-2.8l7.9-4c1.5-0.8,4-0.8,5.5,0l7.9,4c1.5,0.8,1.5,2,0,2.8l-7.9,4
			C726,460,723.5,460,722,459.2z"/>
		<path class="st2" d="M741.3,468.8l-7.9-4c-1.5-0.8-1.5-2,0-2.8l7.9-4c1.5-0.8,4-0.8,5.5,0l7.9,4c1.5,0.8,1.5,2,0,2.8l-7.9,4
			C745.3,469.6,742.8,469.6,741.3,468.8z"/>
		<path class="st2" d="M760.5,478.4l-7.9-4c-1.5-0.8-1.5-2,0-2.8l7.9-4c1.5-0.8,4-0.8,5.5,0l7.9,4c1.5,0.8,1.5,2,0,2.8l-7.9,4
			C764.5,479.2,762,479.2,760.5,478.4z"/>
		<path class="st2" d="M779.8,488.1l-7.9-4c-1.5-0.8-1.5-2,0-2.8l7.9-4c1.5-0.8,4-0.8,5.5,0l7.9,4c1.5,0.8,1.5,2,0,2.8l-7.9,4
			C783.8,488.8,781.3,488.8,779.8,488.1z"/>
		<path class="st2" d="M531.6,381.1l-7.9-4c-1.5-0.8-1.5-2,0-2.8l7.9-4c1.5-0.8,4-0.8,5.5,0l7.9,4c1.5,0.8,1.5,2,0,2.8l-7.9,4
			C535.6,381.8,533.1,381.8,531.6,381.1z"/>
		<path class="st2" d="M550.8,390.7l-7.9-4c-1.5-0.8-1.5-2,0-2.8l7.9-4c1.5-0.8,4-0.8,5.5,0l7.9,4c1.5,0.8,1.5,2,0,2.8l-7.9,4
			C554.9,391.5,552.4,391.5,550.8,390.7z"/>
		<path class="st2" d="M570.1,400.3l-7.9-4c-1.5-0.8-1.5-2,0-2.8l7.9-4c1.5-0.8,4-0.8,5.5,0l7.9,4c1.5,0.8,1.5,2,0,2.8l-7.9,4
			C574.1,401.1,571.6,401.1,570.1,400.3z"/>
		<path class="st2" d="M589.4,410l-7.9-4c-1.5-0.8-1.5-2,0-2.8l7.9-4c1.5-0.8,4-0.8,5.5,0l7.9,4c1.5,0.8,1.5,2,0,2.8l-7.9,4
			C593.4,410.7,590.9,410.7,589.4,410z"/>
		<path class="st2" d="M608.6,419.6l-7.9-4c-1.5-0.8-1.5-2,0-2.8l7.9-4c1.5-0.8,4-0.8,5.5,0l7.9,4c1.5,0.8,1.5,2,0,2.8l-7.9,4
			C612.6,420.4,610.1,420.4,608.6,419.6z"/>
		<path class="st2" d="M627.9,429.2l-7.9-4c-1.5-0.8-1.5-2,0-2.8l7.9-4c1.5-0.8,4-0.8,5.5,0l7.9,4c1.5,0.8,1.5,2,0,2.8l-7.9,4
			C631.9,430,629.4,430,627.9,429.2z"/>
		<path class="st2" d="M647.1,438.8l-7.9-4c-1.5-0.8-1.5-2,0-2.8l7.9-4c1.5-0.8,4-0.8,5.5,0l7.9,4c1.5,0.8,1.5,2,0,2.8l-7.9,4
			C651.1,439.6,648.7,439.6,647.1,438.8z"/>
		<path class="st2" d="M666.4,448.5l-7.9-4c-1.5-0.8-1.5-2,0-2.8l7.9-4c1.5-0.8,4-0.8,5.5,0l7.9,4c1.5,0.8,1.5,2,0,2.8l-7.9,4
			C670.4,449.2,667.9,449.2,666.4,448.5z"/>
		<path class="st2" d="M685.6,458.1l-7.9-4c-1.5-0.8-1.5-2,0-2.8l7.9-4c1.5-0.8,4-0.8,5.5,0l7.9,4c1.5,0.8,1.5,2,0,2.8l-7.9,4
			C689.7,458.9,687.2,458.9,685.6,458.1z"/>
		<path class="st2" d="M704.9,467.7l-7.9-4c-1.5-0.8-1.5-2,0-2.8l7.9-4c1.5-0.8,4-0.8,5.5,0l7.9,4c1.5,0.8,1.5,2,0,2.8l-7.9,4
			C708.9,468.5,706.4,468.5,704.9,467.7z"/>
		<path class="st2" d="M724.2,477.4l-7.9-4c-1.5-0.8-1.5-2,0-2.8l7.9-4c1.5-0.8,4-0.8,5.5,0l7.9,4c1.5,0.8,1.5,2,0,2.8l-7.9,4
			C728.2,478.1,725.7,478.1,724.2,477.4z"/>
		<path class="st2" d="M743.4,487l-7.9-4c-1.5-0.8-1.5-2,0-2.8l7.9-4c1.5-0.8,4-0.8,5.5,0l7.9,4c1.5,0.8,1.5,2,0,2.8l-7.9,4
			C747.4,487.8,744.9,487.8,743.4,487z"/>
		<path class="st2" d="M762.7,496.6l-7.9-4c-1.5-0.8-1.5-2,0-2.8l7.9-4c1.5-0.8,4-0.8,5.5,0l7.9,4c1.5,0.8,1.5,2,0,2.8l-7.9,4
			C766.7,497.4,764.2,497.4,762.7,496.6z"/>
		<path class="st2" d="M514.5,389.6l-7.9-4c-1.5-0.8-1.5-2,0-2.8l7.9-4c1.5-0.8,4-0.8,5.5,0l7.9,4c1.5,0.8,1.5,2,0,2.8l-7.9,4
			C518.5,390.4,516,390.4,514.5,389.6z"/>
		<path class="st2" d="M533.8,399.3l-7.9-4c-1.5-0.8-1.5-2,0-2.8l7.9-4c1.5-0.8,4-0.8,5.5,0l7.9,4c1.5,0.8,1.5,2,0,2.8l-7.9,4
			C537.8,400,535.3,400,533.8,399.3z"/>
		<path class="st2" d="M553,408.9l-7.9-4c-1.5-0.8-1.5-2,0-2.8l7.9-4c1.5-0.8,4-0.8,5.5,0l7.9,4c1.5,0.8,1.5,2,0,2.8l-7.9,4
			C557,409.6,554.5,409.6,553,408.9z"/>
		<path class="st2" d="M572.3,418.5l-7.9-4c-1.5-0.8-1.5-2,0-2.8l7.9-4c1.5-0.8,4-0.8,5.5,0l7.9,4c1.5,0.8,1.5,2,0,2.8l-7.9,4
			C576.3,419.3,573.8,419.3,572.3,418.5z"/>
		<path class="st2" d="M668.6,466.7l-85-42.5c-1.5-0.8-1.5-2,0-2.8l7.9-4c1.5-0.8,4-0.8,5.5,0l85,42.5c1.5,0.8,1.5,2,0,2.8l-7.9,4
			C672.6,467.4,670.1,467.4,668.6,466.7z"/>
		<path class="st2" d="M687.8,476.3l-7.9-4c-1.5-0.8-1.5-2,0-2.8l7.9-4c1.5-0.8,4-0.8,5.5,0l7.9,4c1.5,0.8,1.5,2,0,2.8l-7.9,4
			C691.8,477,689.3,477,687.8,476.3z"/>
		<path class="st2" d="M707.1,485.9l-7.9-4c-1.5-0.8-1.5-2,0-2.8l7.9-4c1.5-0.8,4-0.8,5.5,0l7.9,4c1.5,0.8,1.5,2,0,2.8l-7.9,4
			C711.1,486.7,708.6,486.7,707.1,485.9z"/>
		<path class="st2" d="M726.3,495.5l-7.9-4c-1.5-0.8-1.5-2,0-2.8l7.9-4c1.5-0.8,4-0.8,5.5,0l7.9,4c1.5,0.8,1.5,2,0,2.8l-7.9,4
			C730.3,496.3,727.9,496.3,726.3,495.5z"/>
		<path class="st2" d="M745.6,505.2l-7.9-4c-1.5-0.8-1.5-2,0-2.8l7.9-4c1.5-0.8,4-0.8,5.5,0l7.9,4c1.5,0.8,1.5,2,0,2.8l-7.9,4
			C749.6,505.9,747.1,505.9,745.6,505.2z"/>
	</g>
	<g>
		<path class="st3" d="M565.8,362.6l-7.9-4c-1.5-0.8-1.5-2,0-2.8l7.9-4c1.5-0.8,4-0.8,5.5,0l7.9,4c1.5,0.8,1.5,2,0,2.8l-7.9,4
			C569.8,363.4,567.3,363.4,565.8,362.6z"/>
		<path class="st3" d="M585,372.3l-7.9-4c-1.5-0.8-1.5-2,0-2.8l7.9-4c1.5-0.8,4-0.8,5.5,0l7.9,4c1.5,0.8,1.5,2,0,2.8l-7.9,4
			C589,373,586.6,373,585,372.3z"/>
		<path class="st3" d="M604.3,381.9l-7.9-4c-1.5-0.8-1.5-2,0-2.8l7.9-4c1.5-0.8,4-0.8,5.5,0l7.9,4c1.5,0.8,1.5,2,0,2.8l-7.9,4
			C608.3,382.6,605.8,382.6,604.3,381.9z"/>
		<path class="st3" d="M623.5,391.5l-7.9-4c-1.5-0.8-1.5-2,0-2.8l7.9-4c1.5-0.8,4-0.8,5.5,0l7.9,4c1.5,0.8,1.5,2,0,2.8l-7.9,4
			C627.5,392.3,625.1,392.3,623.5,391.5z"/>
		<path class="st3" d="M642.8,401.1l-7.9-4c-1.5-0.8-1.5-2,0-2.8l7.9-4c1.5-0.8,4-0.8,5.5,0l7.9,4c1.5,0.8,1.5,2,0,2.8l-7.9,4
			C646.8,401.9,644.3,401.9,642.8,401.1z"/>
		<path class="st3" d="M662.1,410.8l-7.9-4c-1.5-0.8-1.5-2,0-2.8l7.9-4c1.5-0.8,4-0.8,5.5,0l7.9,4c1.5,0.8,1.5,2,0,2.8l-7.9,4
			C666.1,411.5,663.6,411.5,662.1,410.8z"/>
		<path class="st3" d="M681.3,420.4l-7.9-4c-1.5-0.8-1.5-2,0-2.8l7.9-4c1.5-0.8,4-0.8,5.5,0l7.9,4c1.5,0.8,1.5,2,0,2.8l-7.9,4
			C685.3,421.2,682.8,421.2,681.3,420.4z"/>
		<path class="st3" d="M700.6,430l-7.9-4c-1.5-0.8-1.5-2,0-2.8l7.9-4c1.5-0.8,4-0.8,5.5,0l7.9,4c1.5,0.8,1.5,2,0,2.8l-7.9,4
			C704.6,430.8,702.1,430.8,700.6,430z"/>
		<path class="st3" d="M719.8,439.7l-7.9-4c-1.5-0.8-1.5-2,0-2.8l7.9-4c1.5-0.8,4-0.8,5.5,0l7.9,4c1.5,0.8,1.5,2,0,2.8l-7.9,4
			C723.8,440.4,721.4,440.4,719.8,439.7z"/>
		<path class="st3" d="M739.1,449.3l-7.9-4c-1.5-0.8-1.5-2,0-2.8l7.9-4c1.5-0.8,4-0.8,5.5,0l7.9,4c1.5,0.8,1.5,2,0,2.8l-7.9,4
			C743.1,450,740.6,450,739.1,449.3z"/>
		<path class="st3" d="M758.3,458.9l-7.9-4c-1.5-0.8-1.5-2,0-2.8l7.9-4c1.5-0.8,4-0.8,5.5,0l7.9,4c1.5,0.8,1.5,2,0,2.8l-7.9,4
			C762.3,459.7,759.9,459.7,758.3,458.9z"/>
		<path class="st3" d="M777.6,468.5l-7.9-4c-1.5-0.8-1.5-2,0-2.8l7.9-4c1.5-0.8,4-0.8,5.5,0l7.9,4c1.5,0.8,1.5,2,0,2.8l-7.9,4
			C781.6,469.3,779.1,469.3,777.6,468.5z"/>
		<path class="st3" d="M796.9,478.2l-7.9-4c-1.5-0.8-1.5-2,0-2.8l7.9-4c1.5-0.8,4-0.8,5.5,0l7.9,4c1.5,0.8,1.5,2,0,2.8l-7.9,4
			C800.9,478.9,798.4,478.9,796.9,478.2z"/>
		<path class="st3" d="M548.7,371.2l-7.9-4c-1.5-0.8-1.5-2,0-2.8l7.9-4c1.5-0.8,4-0.8,5.5,0l7.9,4c1.5,0.8,1.5,2,0,2.8l-7.9,4
			C552.7,371.9,550.2,371.9,548.7,371.2z"/>
		<path class="st3" d="M567.9,380.8l-7.9-4c-1.5-0.8-1.5-2,0-2.8l7.9-4c1.5-0.8,4-0.8,5.5,0l7.9,4c1.5,0.8,1.5,2,0,2.8l-7.9,4
			C571.9,381.6,569.5,381.6,567.9,380.8z"/>
		<path class="st3" d="M587.2,390.4l-7.9-4c-1.5-0.8-1.5-2,0-2.8l7.9-4c1.5-0.8,4-0.8,5.5,0l7.9,4c1.5,0.8,1.5,2,0,2.8l-7.9,4
			C591.2,391.2,588.7,391.2,587.2,390.4z"/>
		<path class="st3" d="M606.5,400.1l-7.9-4c-1.5-0.8-1.5-2,0-2.8l7.9-4c1.5-0.8,4-0.8,5.5,0l7.9,4c1.5,0.8,1.5,2,0,2.8l-7.9,4
			C610.5,400.8,608,400.8,606.5,400.1z"/>
		<path class="st3" d="M625.7,409.7l-7.9-4c-1.5-0.8-1.5-2,0-2.8l7.9-4c1.5-0.8,4-0.8,5.5,0l7.9,4c1.5,0.8,1.5,2,0,2.8l-7.9,4
			C629.7,410.4,627.2,410.4,625.7,409.7z"/>
		<path class="st3" d="M645,419.3l-7.9-4c-1.5-0.8-1.5-2,0-2.8l7.9-4c1.5-0.8,4-0.8,5.5,0l7.9,4c1.5,0.8,1.5,2,0,2.8l-7.9,4
			C649,420.1,646.5,420.1,645,419.3z"/>
		<path class="st3" d="M664.2,428.9l-7.9-4c-1.5-0.8-1.5-2,0-2.8l7.9-4c1.5-0.8,4-0.8,5.5,0l7.9,4c1.5,0.8,1.5,2,0,2.8l-7.9,4
			C668.2,429.7,665.8,429.7,664.2,428.9z"/>
		<path class="st3" d="M683.5,438.6l-7.9-4c-1.5-0.8-1.5-2,0-2.8l7.9-4c1.5-0.8,4-0.8,5.5,0l7.9,4c1.5,0.8,1.5,2,0,2.8l-7.9,4
			C687.5,439.3,685,439.3,683.5,438.6z"/>
		<path class="st3" d="M702.7,448.2l-7.9-4c-1.5-0.8-1.5-2,0-2.8l7.9-4c1.5-0.8,4-0.8,5.5,0l7.9,4c1.5,0.8,1.5,2,0,2.8l-7.9,4
			C706.7,449,704.3,449,702.7,448.2z"/>
		<path class="st3" d="M722,457.8l-7.9-4c-1.5-0.8-1.5-2,0-2.8l7.9-4c1.5-0.8,4-0.8,5.5,0l7.9,4c1.5,0.8,1.5,2,0,2.8l-7.9,4
			C726,458.6,723.5,458.6,722,457.8z"/>
		<path class="st3" d="M741.3,467.5l-7.9-4c-1.5-0.8-1.5-2,0-2.8l7.9-4c1.5-0.8,4-0.8,5.5,0l7.9,4c1.5,0.8,1.5,2,0,2.8l-7.9,4
			C745.3,468.2,742.8,468.2,741.3,467.5z"/>
		<path class="st3" d="M760.5,477.1l-7.9-4c-1.5-0.8-1.5-2,0-2.8l7.9-4c1.5-0.8,4-0.8,5.5,0l7.9,4c1.5,0.8,1.5,2,0,2.8l-7.9,4
			C764.5,477.8,762,477.8,760.5,477.1z"/>
		<path class="st3" d="M779.8,486.7l-7.9-4c-1.5-0.8-1.5-2,0-2.8l7.9-4c1.5-0.8,4-0.8,5.5,0l7.9,4c1.5,0.8,1.5,2,0,2.8l-7.9,4
			C783.8,487.5,781.3,487.5,779.8,486.7z"/>
		<path class="st3" d="M531.6,379.7l-7.9-4c-1.5-0.8-1.5-2,0-2.8l7.9-4c1.5-0.8,4-0.8,5.5,0l7.9,4c1.5,0.8,1.5,2,0,2.8l-7.9,4
			C535.6,380.5,533.1,380.5,531.6,379.7z"/>
		<path class="st3" d="M550.8,389.3l-7.9-4c-1.5-0.8-1.5-2,0-2.8l7.9-4c1.5-0.8,4-0.8,5.5,0l7.9,4c1.5,0.8,1.5,2,0,2.8l-7.9,4
			C554.9,390.1,552.4,390.1,550.8,389.3z"/>
		<path class="st3" d="M570.1,399l-7.9-4c-1.5-0.8-1.5-2,0-2.8l7.9-4c1.5-0.8,4-0.8,5.5,0l7.9,4c1.5,0.8,1.5,2,0,2.8l-7.9,4
			C574.1,399.7,571.6,399.7,570.1,399z"/>
		<path class="st3" d="M589.4,408.6l-7.9-4c-1.5-0.8-1.5-2,0-2.8l7.9-4c1.5-0.8,4-0.8,5.5,0l7.9,4c1.5,0.8,1.5,2,0,2.8l-7.9,4
			C593.4,409.4,590.9,409.4,589.4,408.6z"/>
		<path class="st3" d="M608.6,418.2l-7.9-4c-1.5-0.8-1.5-2,0-2.8l7.9-4c1.5-0.8,4-0.8,5.5,0l7.9,4c1.5,0.8,1.5,2,0,2.8l-7.9,4
			C612.6,419,610.1,419,608.6,418.2z"/>
		<path class="st3" d="M627.9,427.9l-7.9-4c-1.5-0.8-1.5-2,0-2.8l7.9-4c1.5-0.8,4-0.8,5.5,0l7.9,4c1.5,0.8,1.5,2,0,2.8l-7.9,4
			C631.9,428.6,629.4,428.6,627.9,427.9z"/>
		<path class="st3" d="M647.1,437.5l-7.9-4c-1.5-0.8-1.5-2,0-2.8l7.9-4c1.5-0.8,4-0.8,5.5,0l7.9,4c1.5,0.8,1.5,2,0,2.8l-7.9,4
			C651.1,438.3,648.7,438.3,647.1,437.5z"/>
		<path class="st3" d="M666.4,447.1l-7.9-4c-1.5-0.8-1.5-2,0-2.8l7.9-4c1.5-0.8,4-0.8,5.5,0l7.9,4c1.5,0.8,1.5,2,0,2.8l-7.9,4
			C670.4,447.9,667.9,447.9,666.4,447.1z"/>
		<path class="st3" d="M685.6,456.7l-7.9-4c-1.5-0.8-1.5-2,0-2.8l7.9-4c1.5-0.8,4-0.8,5.5,0l7.9,4c1.5,0.8,1.5,2,0,2.8l-7.9,4
			C689.7,457.5,687.2,457.5,685.6,456.7z"/>
		<path class="st3" d="M704.9,466.4l-7.9-4c-1.5-0.8-1.5-2,0-2.8l7.9-4c1.5-0.8,4-0.8,5.5,0l7.9,4c1.5,0.8,1.5,2,0,2.8l-7.9,4
			C708.9,467.1,706.4,467.1,704.9,466.4z"/>
		<path class="st3" d="M724.2,476l-7.9-4c-1.5-0.8-1.5-2,0-2.8l7.9-4c1.5-0.8,4-0.8,5.5,0l7.9,4c1.5,0.8,1.5,2,0,2.8l-7.9,4
			C728.2,476.8,725.7,476.8,724.2,476z"/>
		<path class="st3" d="M743.4,485.6l-7.9-4c-1.5-0.8-1.5-2,0-2.8l7.9-4c1.5-0.8,4-0.8,5.5,0l7.9,4c1.5,0.8,1.5,2,0,2.8l-7.9,4
			C747.4,486.4,744.9,486.4,743.4,485.6z"/>
		<path class="st3" d="M762.7,495.3l-7.9-4c-1.5-0.8-1.5-2,0-2.8l7.9-4c1.5-0.8,4-0.8,5.5,0l7.9,4c1.5,0.8,1.5,2,0,2.8l-7.9,4
			C766.7,496,764.2,496,762.7,495.3z"/>
		<path class="st3" d="M514.5,388.3l-7.9-4c-1.5-0.8-1.5-2,0-2.8l7.9-4c1.5-0.8,4-0.8,5.5,0l7.9,4c1.5,0.8,1.5,2,0,2.8l-7.9,4
			C518.5,389,516,389,514.5,388.3z"/>
		<path class="st3" d="M533.8,397.9l-7.9-4c-1.5-0.8-1.5-2,0-2.8l7.9-4c1.5-0.8,4-0.8,5.5,0l7.9,4c1.5,0.8,1.5,2,0,2.8l-7.9,4
			C537.8,398.7,535.3,398.7,533.8,397.9z"/>
		<path class="st3" d="M553,407.5l-7.9-4c-1.5-0.8-1.5-2,0-2.8l7.9-4c1.5-0.8,4-0.8,5.5,0l7.9,4c1.5,0.8,1.5,2,0,2.8l-7.9,4
			C557,408.3,554.5,408.3,553,407.5z"/>
		<path class="st3" d="M572.3,417.1l-7.9-4c-1.5-0.8-1.5-2,0-2.8l7.9-4c1.5-0.8,4-0.8,5.5,0l7.9,4c1.5,0.8,1.5,2,0,2.8l-7.9,4
			C576.3,417.9,573.8,417.9,572.3,417.1z"/>
		<path class="st3" d="M668.6,465.3l-85-42.5c-1.5-0.8-1.5-2,0-2.8l7.9-4c1.5-0.8,4-0.8,5.5,0l85,42.5c1.5,0.8,1.5,2,0,2.8l-7.9,4
			C672.6,466.1,670.1,466.1,668.6,465.3z"/>
		<path class="st3" d="M687.8,474.9l-7.9-4c-1.5-0.8-1.5-2,0-2.8l7.9-4c1.5-0.8,4-0.8,5.5,0l7.9,4c1.5,0.8,1.5,2,0,2.8l-7.9,4
			C691.8,475.7,689.3,475.7,687.8,474.9z"/>
		<path class="st3" d="M707.1,484.5l-7.9-4c-1.5-0.8-1.5-2,0-2.8l7.9-4c1.5-0.8,4-0.8,5.5,0l7.9,4c1.5,0.8,1.5,2,0,2.8l-7.9,4
			C711.1,485.3,708.6,485.3,707.1,484.5z"/>
		<path class="st3" d="M726.3,494.2l-7.9-4c-1.5-0.8-1.5-2,0-2.8l7.9-4c1.5-0.8,4-0.8,5.5,0l7.9,4c1.5,0.8,1.5,2,0,2.8l-7.9,4
			C730.3,494.9,727.9,494.9,726.3,494.2z"/>
		<path class="st3" d="M745.6,503.8l-7.9-4c-1.5-0.8-1.5-2,0-2.8l7.9-4c1.5-0.8,4-0.8,5.5,0l7.9,4c1.5,0.8,1.5,2,0,2.8l-7.9,4
			C749.6,504.6,747.1,504.6,745.6,503.8z"/>
	</g>
</g>
<g>
	<path class="st4" d="M797.6,348.8l-256.9-140c-2.5-1.4-4.6-4.5-4.5-6.9l-7.9-162.4c0-2.4,10.7-7.2,13.2-5.8l256.9,140.1
		c2.5,1.4,4.6,4.5,4.5,6.9L802.2,347C802.2,349.3,800.1,350.2,797.6,348.8z"/>
	<path class="st5" d="M788.4,354.6l-256.9-140c-2.5-1.4-4.6-4.5-4.5-6.9l0.7-166.3c0-2.4,2.1-3.3,4.6-1.9l256.9,140.1
		c2.5,1.4,4.6,4.5,4.5,6.9L793,352.8C793,355.1,790.9,356,788.4,354.6z"/>
	<polygon class="st1" points="771,348.4 539.1,221.2 539.8,63.4 771.7,190.6 	"/>
</g>
<path class="st6" d="M943.5,474.2L660.8,320.3c-5.2-2.8-9.6-9.9-9.7-15.7L649,142.7c-0.1-5.8,4.1-8.2,9.4-5.4l282.7,153.9
	c5.2,2.8,9.6,9.9,9.7,15.7l2.1,161.9C953,474.6,948.8,477.1,943.5,474.2z"/>
<g>
	<path class="st7" d="M931,477.5L648.3,323.7c-5.2-2.8-9.6-9.9-9.7-15.7l-2.1-161.9c-0.1-5.8,4.1-8.2,9.4-5.4l282.7,153.9
		c5.2,2.8,9.6,9.9,9.7,15.7l2.1,161.9C940.5,478,936.3,480.4,931,477.5z"/>
	<g>
		<g>
			<path class="st1" d="M924.4,483.4L641.6,329.5c-5.2-2.8-9.6-9.9-9.7-15.7l-2.1-161.9c-0.1-5.8,4.1-8.2,9.4-5.4l282.7,153.9
				c5.2,2.8,9.6,9.9,9.7,15.7l2.1,161.9C933.8,483.8,929.6,486.2,924.4,483.4z"/>
			<path class="st8" d="M638.3,264c0,0,13.1-16.2,45.6,6.8c32.6,23,43.3,50.4,60.7,42.6c11.6-5.2,21.5-12.1,33.7-11
				c33.4,3.1,45.9,35.3,71.5,46.1c35.5,14.9,25-24.8,81.3,9.9"/>
			<g>
				
					<linearGradient id="SVGID_1_" gradientUnits="userSpaceOnUse" x1="912.9647" y1="-341.6453" x2="646.6319" y2="-503.5336" gradientTransform="matrix(1 0 0 1 0 735.748)">
					<stop  offset="0" style="stop-color:#95FF28"/>
					<stop  offset="0.4663" style="stop-color:#C8CC33"/>
					<stop  offset="1" style="stop-color:#FF953F"/>
				</linearGradient>
				<path class="st9" d="M628.8,267.3c2.3-2.8,5.7-4.6,9.2-5.6c0.4-0.1,0.9-0.3,1.3-0.4l1.4-0.2l1.4-0.2c0.5-0.1,0.9,0,1.4-0.1
					c0.9,0,1.9-0.1,2.8,0l2.8,0.3c0.9,0.1,1.8,0.3,2.7,0.5s1.8,0.3,2.7,0.6l2.6,0.8l1.3,0.4c0.4,0.1,0.8,0.3,1.3,0.5l2.5,1.1
					c0.8,0.4,1.7,0.7,2.5,1.2c1.6,0.9,3.2,1.7,4.8,2.6c12.5,7.5,23.4,17.4,33.5,27.6c2.5,2.6,5,5.1,7.6,7.6c2.5,2.5,5.1,4.9,7.8,7
					s5.6,3.9,8.6,4.4c1.5,0.3,3,0.2,4.5-0.1l1.1-0.3c0.4-0.1,0.7-0.3,1.1-0.4l0.5-0.2l0.6-0.3l1.2-0.6c3.2-1.5,6.4-3.2,9.6-4.8
					c3.3-1.6,6.7-3.1,10.3-4.2s7.5-1.8,11.4-1.6l1.5,0.1c0.5,0,0.9,0.1,1.4,0.1c0.9,0.1,1.9,0.2,2.8,0.4c0.9,0.2,1.9,0.3,2.8,0.5
					s1.8,0.4,2.8,0.7c7.3,1.9,14.1,5.6,20,10c6,4.4,11.3,9.5,16.5,14.4c5.2,5,10.3,9.9,15.9,13.9c2.8,2,5.7,3.8,8.8,5.2
					c1.5,0.7,3.1,1.3,4.7,1.9c0.8,0.3,1.6,0.5,2.4,0.8l1.2,0.4l1.2,0.3c3.3,0.8,6.5,1.2,9.7,0.9c3.2-0.3,6.2-1.2,9.3-2.7
					c3.1-1.4,6.2-3.3,9.7-4.8c3.5-1.6,7.6-2.5,11.5-2.6c4-0.1,7.9,0.6,11.5,1.6c3.7,1,7.1,2.5,10.5,4c6.7,3.2,12.9,7,19,11.1
					c1.4,0.9,1.8,2.8,0.8,4.2s-2.8,1.8-4.2,0.8l0,0c-5.9-3.9-12-7.6-18.2-10.6c-3.2-1.4-6.3-2.8-9.6-3.7c-3.2-0.9-6.5-1.5-9.7-1.4
					s-6.3,0.8-9.3,2.1c-3.1,1.3-6.1,3.1-9.6,4.7c-3.4,1.6-7.3,2.9-11.3,3.2c-4,0.3-7.9-0.2-11.6-1.1l-1.4-0.3l-1.4-0.4
					c-0.9-0.3-1.8-0.6-2.7-0.9c-1.7-0.7-3.5-1.3-5.2-2.2c-3.4-1.6-6.7-3.6-9.7-5.8c-6-4.4-11.3-9.5-16.4-14.5s-10.2-9.9-15.8-14.1
					s-11.7-7.5-18.2-9.3c-0.8-0.2-1.7-0.4-2.5-0.6s-1.7-0.3-2.5-0.5s-1.7-0.3-2.5-0.4c-0.4,0-0.9-0.1-1.3-0.2L767,308
					c-3.3-0.2-6.6,0.3-9.8,1.3c-6.5,1.9-12.8,5.5-19.4,8.5l-1.3,0.6l-0.6,0.3l-0.7,0.3c-0.5,0.2-0.9,0.4-1.4,0.5l-1.5,0.4
					c-2,0.4-4.2,0.4-6.2,0s-3.9-1.2-5.6-2.1c-1.7-1-3.3-2-4.7-3.2c-2.9-2.3-5.5-4.9-8.1-7.5c-2.5-2.6-5-5.2-7.5-7.8
					c-5-5.2-10-10.2-15.4-14.8c-2.7-2.3-5.4-4.6-8.3-6.7c-2.8-2.2-5.8-4.1-8.7-6.1c-6-3.7-12.3-6.9-19.2-8.4
					c-3.4-0.7-6.9-0.9-10.4-0.4C634.9,263.5,631.5,264.8,628.8,267.3z"/>
			</g>
		</g>
		<line class="st10" x1="682.5" y1="251.3" x2="683.9" y2="354.8"/>
		<line class="st10" x1="742.8" y1="291.8" x2="744" y2="387.5"/>
		<line class="st10" x1="802.4" y1="285.9" x2="804.2" y2="420.2"/>
		<line class="st10" x1="862.8" y1="337.9" x2="864.3" y2="453"/>
		<ellipse transform="matrix(0.8446 -0.5354 0.5354 0.8446 -28.4827 404.4681)" cx="682.5" cy="251.3" rx="3.9" ry="6.7"/>
		<ellipse transform="matrix(0.8446 -0.5354 0.5354 0.8446 -39.5784 442.6323)" cx="742.7" cy="289.5" rx="3.9" ry="6.7"/>
		<ellipse transform="matrix(0.8446 -0.5354 0.5354 0.8446 -26.4566 473.2513)" cx="802" cy="282.2" rx="3.9" ry="6.7"/>
		<ellipse transform="matrix(0.8446 -0.5354 0.5354 0.8446 -44.8559 514.0565)" cx="863.1" cy="334.3" rx="3.9" ry="6.7"/>
		<text transform="matrix(0.9006 0.4901 1.306643e-02 0.9999 666.594 229.4865)" class="st11 st12">2016</text>
		<text transform="matrix(0.9006 0.4901 1.306643e-02 0.9999 727.9061 272.0515)" class="st11 st12">2017</text>
		<text transform="matrix(0.9006 0.4901 1.306643e-02 0.9999 788.2032 263.472)" class="st11 st12">2018</text>
		<text transform="matrix(0.9006 0.4901 1.306643e-02 0.9999 850.7006 317.414)" class="st11 st12">2019</text>
	</g>
</g>
<g>
	<g>
		<g>
			<path class="st7" d="M849.5,561.2L708,484.6c-1.4-0.7-2.6-2.6-2.6-4.3l-3.7-110.9c0-1.6,6.1-3.9,7.6-3.2l145.9,72.9
				c1.4,0.7,2.6,2.6,2.6,4.3l-1.2,112.4C856.4,557.4,850.9,562,849.5,561.2z"/>
			<g>
				<path class="st13" d="M848.1,560.7l-145.9-72.9c-1.4-0.7-2.6-2.6-2.6-4.3l1.2-112.4c0-1.6,1.2-2.4,2.6-1.7l145.9,72.9
					c1.4,0.7,2.6,2.6,2.6,4.3L850.7,559C850.7,560.7,849.5,561.5,848.1,560.7z"/>
				<path class="st1" d="M851.8,456.9l0.1-10.2c0-1.6-1.1-3.6-2.6-4.3l-145.9-72.9c-1.4-0.7-2.6,0.1-2.6,1.7l-0.1,10.2L851.8,456.9z
					"/>
				
					<ellipse transform="matrix(0.8716 -0.4902 0.4902 0.8716 -95.059 395.4565)" class="st13" cx="707.4" cy="379.2" rx="2.2" ry="3.5"/>
				
					<ellipse transform="matrix(0.8716 -0.4902 0.4902 0.8716 -96.1439 400.7182)" class="st13" cx="716.9" cy="383.9" rx="2.2" ry="3.5"/>
				
					<ellipse transform="matrix(0.8716 -0.4902 0.4902 0.8716 -97.2768 405.9895)" class="st13" cx="726.4" cy="388.7" rx="2.2" ry="3.5"/>
				<path class="st14" d="M749.3,418.4l-40.5-20.2c-1.3-0.7-2.4-2.4-2.3-3.9l0,0c0-1.5,1.1-2.2,2.4-1.6l40.5,20.2
					c1.3,0.7,2.4,2.4,2.3,3.9l0,0C751.6,418.4,750.6,419.1,749.3,418.4z"/>
			</g>
		</g>
	</g>
	<g>
		<path class="st1" d="M837.6,500.9l-124.5-64.1c-1.5-0.8-2.7-3-2.6-4.9l0,0c0.1-1.9,1.3-2.9,2.9-2.1L838,494c1.5,0.8,2.7,3,2.6,4.9
			l0,0C840.4,500.8,839.1,501.7,837.6,500.9z"/>
		<path class="st1" d="M837,521.1l-124.6-64.2c-1.5-0.8-2.7-3-2.6-4.9l0,0c0.1-1.9,1.3-2.9,2.9-2.1l124.6,64.2
			c1.5,0.8,2.7,3,2.6,4.9l0,0C839.8,520.9,838.5,521.9,837,521.1z"/>
		<path class="st1" d="M836.4,541.2L711.8,477c-1.5-0.8-2.7-3-2.6-4.9l0,0c0.1-1.9,1.3-2.9,2.9-2.1l124.6,64.2
			c1.5,0.8,2.7,3,2.6,4.9l0,0C839.1,541.1,837.9,542,836.4,541.2z"/>
		<path class="st1" d="M836,480.7l-124.6-64.2c-1.5-0.8-2.7-3-2.6-4.9l0,0c0.1-1.9,1.3-2.9,2.9-2.1l124.6,64.2
			c1.5,0.8,2.7,3,2.6,4.9l0,0C838.8,480.5,837.6,481.5,836,480.7z"/>
	</g>
</g>
<path d="M922.7,491.1c-1.6,2.2-4.2,4.3-7.8,6.1l-189.8,95c-7.2,3.6-19,3.6-26.2,0L365.3,425.4c-3-1.5-5.3-3.2-7-5.1
	c-4.3,5.9-1.7,12.8,7.8,17.6l333.6,166.8c7.2,3.6,19,3.6,26.2,0l189.9-94.9C925.8,504.7,928.1,497.2,922.7,491.1z"/>
<g>
	<g>
		<path class="st15" d="M214.9,609.7l-7.2-3.6l-3.8,1.9c-2.1-0.7-4.4-1.1-6.8-1.4v-2.7h-10.2v2.7c-2.4,0.3-4.7,0.7-6.8,1.4l-3.8-1.9
			l-7.2,3.6l3.8,1.9c-1.3,1.1-2.3,2.2-2.8,3.4h-5.4v5.1h5.4c0.6,1.2,1.5,2.3,2.8,3.4l-3.8,1.9l7.2,3.6l3.8-1.9
			c2.1,0.7,4.4,1.1,6.8,1.4v2.7h10.2v-2.7c2.4-0.3,4.7-0.7,6.8-1.4l3.8,1.9l7.2-3.6l-3.8-1.9c1.3-1.1,2.3-2.2,2.8-3.4h5.4V615h-5.4
			c-0.6-1.2-1.5-2.3-2.8-3.4L214.9,609.7z M200.9,622c-4.9,2.4-12.8,2.4-17.7,0s-4.9-6.4,0-8.9c4.9-2.4,12.8-2.4,17.7,0
			C205.8,615.6,205.8,619.5,200.9,622z"/>
	</g>
</g>
<radialGradient id="SVGID_2_" cx="184.4" cy="-31.7148" r="41.6" gradientTransform="matrix(1 0 0 0.5 0 577.3574)" gradientUnits="userSpaceOnUse">
	<stop  offset="0.7718" style="stop-color:#C8C8C8"/>
	<stop  offset="0.8326" style="stop-color:#D1D1D1;stop-opacity:0.7333"/>
	<stop  offset="0.9334" style="stop-color:#EBEBEB;stop-opacity:0.2917"/>
	<stop  offset="1" style="stop-color:#FFFFFF;stop-opacity:0"/>
</radialGradient>
<ellipse class="st16" cx="184.4" cy="561.5" rx="41.6" ry="20.8"/>
<polygon class="st17" points="510.5,525.7 559.5,522.6 586.8,511.6 600.6,526.5 634.6,510.5 650.7,531.4 699.2,515.3 731.2,564 
	763.1,558.3 804.5,530.7 804.5,672.6 791.2,682 497.1,534.4 "/>
<polygon class="st18" points="497.3,534.7 546.2,531.6 573.5,520.6 587.3,535.5 621.3,519.6 637.5,540.4 685.9,524.3 717.9,573 
	749.8,567.3 791.2,539.7 791.2,681.6 "/>
<g>
	
		<linearGradient id="SVGID_3_" gradientUnits="userSpaceOnUse" x1="796.658" y1="-50.3437" x2="-337.1608" y2="451.6331" gradientTransform="matrix(1 0 0 1 0 735.748)">
		<stop  offset="0" style="stop-color:#CCE0F4"/>
		<stop  offset="6.405089e-02" style="stop-color:#C3DCF2"/>
		<stop  offset="0.1706" style="stop-color:#A9D2EE"/>
		<stop  offset="0.3066" style="stop-color:#80C2E7"/>
		<stop  offset="0.4649" style="stop-color:#47ACDE"/>
		<stop  offset="0.5674" style="stop-color:#1E9CD7"/>
		<stop  offset="0.8652" style="stop-color:#0075BE"/>
		<stop  offset="0.9944" style="stop-color:#005B97"/>
	</linearGradient>
	<polygon class="st19" points="759.5,685.7 781.9,696.8 584.7,795.4 562.3,784.2 	"/>
	
		<linearGradient id="SVGID_4_" gradientUnits="userSpaceOnUse" x1="779.9133" y1="-88.1653" x2="-353.9059" y2="413.8117" gradientTransform="matrix(1 0 0 1 0 735.748)">
		<stop  offset="0" style="stop-color:#CCE0F4"/>
		<stop  offset="6.405089e-02" style="stop-color:#C3DCF2"/>
		<stop  offset="0.1706" style="stop-color:#A9D2EE"/>
		<stop  offset="0.3066" style="stop-color:#80C2E7"/>
		<stop  offset="0.4649" style="stop-color:#47ACDE"/>
		<stop  offset="0.5674" style="stop-color:#1E9CD7"/>
		<stop  offset="0.8652" style="stop-color:#0075BE"/>
		<stop  offset="0.9944" style="stop-color:#005B97"/>
	</linearGradient>
	<polygon class="st20" points="713.6,662.7 736,673.9 606.5,738.6 584.1,727.4 	"/>
	
		<linearGradient id="SVGID_5_" gradientUnits="userSpaceOnUse" x1="764.866" y1="-122.1527" x2="-368.9529" y2="379.8246" gradientTransform="matrix(1 0 0 1 0 735.748)">
		<stop  offset="0" style="stop-color:#CCE0F4"/>
		<stop  offset="6.405089e-02" style="stop-color:#C3DCF2"/>
		<stop  offset="0.1706" style="stop-color:#A9D2EE"/>
		<stop  offset="0.3066" style="stop-color:#80C2E7"/>
		<stop  offset="0.4649" style="stop-color:#47ACDE"/>
		<stop  offset="0.5674" style="stop-color:#1E9CD7"/>
		<stop  offset="0.8652" style="stop-color:#0075BE"/>
		<stop  offset="0.9944" style="stop-color:#005B97"/>
	</linearGradient>
	<polygon class="st21" points="667.7,639.8 690.1,650.9 469.9,761 447.6,749.8 	"/>
	
		<linearGradient id="SVGID_6_" gradientUnits="userSpaceOnUse" x1="748.4456" y1="-159.2415" x2="-385.3734" y2="342.7358" gradientTransform="matrix(1 0 0 1 0 735.748)">
		<stop  offset="0" style="stop-color:#CCE0F4"/>
		<stop  offset="6.405089e-02" style="stop-color:#C3DCF2"/>
		<stop  offset="0.1706" style="stop-color:#A9D2EE"/>
		<stop  offset="0.3066" style="stop-color:#80C2E7"/>
		<stop  offset="0.4649" style="stop-color:#47ACDE"/>
		<stop  offset="0.5674" style="stop-color:#1E9CD7"/>
		<stop  offset="0.8652" style="stop-color:#0075BE"/>
		<stop  offset="0.9944" style="stop-color:#005B97"/>
	</linearGradient>
	<polygon class="st22" points="621.8,616.8 644.2,628 461.1,719.5 438.7,708.3 	"/>
	
		<linearGradient id="SVGID_7_" gradientUnits="userSpaceOnUse" x1="731.7009" y1="-197.063" x2="-402.1182" y2="304.9143" gradientTransform="matrix(1 0 0 1 0 735.748)">
		<stop  offset="0" style="stop-color:#CCE0F4"/>
		<stop  offset="6.405089e-02" style="stop-color:#C3DCF2"/>
		<stop  offset="0.1706" style="stop-color:#A9D2EE"/>
		<stop  offset="0.3066" style="stop-color:#80C2E7"/>
		<stop  offset="0.4649" style="stop-color:#47ACDE"/>
		<stop  offset="0.5674" style="stop-color:#1E9CD7"/>
		<stop  offset="0.8652" style="stop-color:#0075BE"/>
		<stop  offset="0.9944" style="stop-color:#005B97"/>
	</linearGradient>
	<polygon class="st23" points="575.9,593.8 598.2,605 482.9,662.7 460.5,651.5 	"/>
	
		<linearGradient id="SVGID_8_" gradientUnits="userSpaceOnUse" x1="716.7216" y1="-230.8971" x2="-417.0977" y2="271.08" gradientTransform="matrix(1 0 0 1 0 735.748)">
		<stop  offset="0" style="stop-color:#CCE0F4"/>
		<stop  offset="6.405089e-02" style="stop-color:#C3DCF2"/>
		<stop  offset="0.1706" style="stop-color:#A9D2EE"/>
		<stop  offset="0.3066" style="stop-color:#80C2E7"/>
		<stop  offset="0.4649" style="stop-color:#47ACDE"/>
		<stop  offset="0.5674" style="stop-color:#1E9CD7"/>
		<stop  offset="0.8652" style="stop-color:#0075BE"/>
		<stop  offset="0.9944" style="stop-color:#005B97"/>
	</linearGradient>
	<polygon class="st24" points="530,570.9 552.3,582.1 339.9,688.3 317.5,677.1 	"/>
	
		<linearGradient id="SVGID_9_" gradientUnits="userSpaceOnUse" x1="699.9241" y1="-268.8377" x2="-433.8949" y2="233.1396" gradientTransform="matrix(1 0 0 1 0 735.748)">
		<stop  offset="0" style="stop-color:#CCE0F4"/>
		<stop  offset="6.405089e-02" style="stop-color:#C3DCF2"/>
		<stop  offset="0.1706" style="stop-color:#A9D2EE"/>
		<stop  offset="0.3066" style="stop-color:#80C2E7"/>
		<stop  offset="0.4649" style="stop-color:#47ACDE"/>
		<stop  offset="0.5674" style="stop-color:#1E9CD7"/>
		<stop  offset="0.8652" style="stop-color:#0075BE"/>
		<stop  offset="0.9944" style="stop-color:#005B97"/>
	</linearGradient>
	<polygon class="st25" points="484.1,547.9 506.4,559.1 365.8,629.4 343.4,618.3 	"/>
	<text transform="matrix(0.8944 0.4472 -0.8944 0.4472 328.6519 625.6166)" class="st11 st26">21 %</text>
	<text transform="matrix(0.8944 0.4472 -0.8944 0.4472 303.3961 684.1553)" class="st11 st26">72 %</text>
	<polygon class="st27" points="340.4,733.9 338.7,733 338.7,733 	"/>
	<text transform="matrix(0.8944 0.4472 -0.8944 0.4472 446.9576 658.2834)" class="st11 st26">19 %</text>
	<text transform="matrix(0.8944 0.4472 -0.8944 0.4472 421.0602 717.1415)" class="st11 st26">67 %</text>
	<text transform="matrix(0.8944 0.4472 -0.8944 0.4472 431.6549 756.5768)" class="st11 st26">78 %</text>
	<text transform="matrix(0.8944 0.4472 -0.8944 0.4472 567.6178 735.682)" class="st11 st26">28 %</text>
	<text transform="matrix(0.8944 0.4472 -0.8944 0.4472 545.8395 791.303)" class="st11 st26">52 %</text>
</g>
<g>
	<path class="st13" d="M853,717.9v-5.6l-13.7,3.4c-2.6-0.8-5.5-1.4-8.4-1.7v-3.3h-12.8v3.3c-2.9,0.3-5.8,0.9-8.4,1.7l-13.7-3.4v5.6
		l4.7,2.4c-1.6,1.3-2.8,2.7-3.5,4.2h-6.7v6.4h8l-2.5,1v5.6l9,4.5l4.7-2.4c2.6,0.8,5.5,1.4,8.4,1.7v3.3h12.7v-3.3
		c2.9-0.3,5.8-0.9,8.4-1.7l4.7,2.4l9-4.5v-5.6l-2.5-1h8v-6.4h-6.7c-0.7-1.5-1.8-2.9-3.5-4.2L853,717.9z M835.5,733.2
		c-6.1,3-16,3-22,0c-6.1-3-6.1-8,0-11s16-3,22,0C841.6,725.2,841.6,730.1,835.5,733.2z"/>
	<path class="st28" d="M853,712.3l-9-4.5l-4.7,2.4c-2.6-0.8-5.5-1.4-8.4-1.7v-3.3h-12.8v3.3c-2.9,0.3-5.8,0.9-8.4,1.7l-4.7-2.4
		l-9,4.5l4.7,2.4c-1.6,1.3-2.8,2.7-3.5,4.2h-6.7v6.4h6.7c0.7,1.5,1.8,2.9,3.5,4.2l-4.7,2.4l9,4.5l4.7-2.4c2.6,0.8,5.5,1.4,8.4,1.7
		v3.3h12.7v-3.3c2.9-0.3,5.8-0.9,8.4-1.7l4.7,2.4l9-4.5l-4.7-2.4c1.6-1.3,2.8-2.7,3.5-4.2h6.7v-6.4h-6.7c-0.7-1.5-1.8-2.9-3.5-4.2
		L853,712.3z M835.5,727.6c-6.1,3-16,3-22,0c-6.1-3-6.1-8,0-11s16-3,22,0C841.6,719.6,841.6,724.6,835.5,727.6z"/>
</g>
<g>
	<path class="st29" d="M214.9,609.7v-4.5l-11,2.8c-2.1-0.7-4.4-1.1-6.8-1.4v-2.7h-10.2v2.7c-2.4,0.3-4.7,0.7-6.8,1.4l-11-2.8v4.5
		l3.8,1.9c-1.3,1.1-2.3,2.2-2.8,3.4h-5.4v5.1h6.4l-2,0.8v4.5l7.2,3.6l3.8-1.9c2.1,0.7,4.4,1.1,6.8,1.4v2.7h10.2v-2.7
		c2.4-0.3,4.7-0.7,6.8-1.4l3.8,1.9l7.2-3.6v-4.5l-2.1-0.8h6.4V615h-5.4c-0.6-1.2-1.5-2.3-2.8-3.4L214.9,609.7z M200.9,622
		c-4.9,2.4-12.8,2.4-17.7,0s-4.9-6.4,0-8.9c4.9-2.4,12.8-2.4,17.7,0C205.8,615.6,205.8,619.5,200.9,622z"/>
	<path class="st15" d="M214.9,605.2l-7.2-3.6l-3.8,1.9c-2.1-0.7-4.4-1.1-6.8-1.4v-2.7h-10.2v2.7c-2.4,0.3-4.7,0.7-6.8,1.4l-3.8-1.9
		l-7.2,3.6l3.8,1.9c-1.3,1.1-2.3,2.2-2.8,3.4h-5.4v5.1h5.4c0.6,1.2,1.5,2.3,2.8,3.4l-3.8,1.9l7.2,3.6l3.8-1.9
		c2.1,0.7,4.4,1.1,6.8,1.4v2.7h10.2V624c2.4-0.3,4.7-0.7,6.8-1.4l3.8,1.9l7.2-3.6l-3.8-1.9c1.3-1.1,2.3-2.2,2.8-3.4h5.4v-5.1h-5.4
		c-0.6-1.2-1.5-2.3-2.8-3.4L214.9,605.2z M200.9,617.5c-4.9,2.4-12.8,2.4-17.7,0s-4.9-6.4,0-8.9c4.9-2.4,12.8-2.4,17.7,0
		C205.8,611.1,205.8,615,200.9,617.5z"/>
</g>
<path class="st30" d="M927.8,721.8v-4l-9.9,2.5c-1.9-0.6-4-1-6.1-1.3v-2.4h-9.2v2.4c-2.1,0.2-4.2,0.7-6.1,1.3l-9.9-2.5v4l3.4,1.7
	c-1.2,1-2,2-2.5,3h-4.8v4.6h5.8l-1.8,0.7v4l6.5,3.2l3.4-1.7c1.9,0.6,4,1,6.1,1.3v2.4h9.2v-2.3c2.1-0.2,4.2-0.7,6.1-1.3l3.4,1.7
	l6.5-3.2v-4l-1.8-0.7h5.8v-4.6h-4.8c-0.5-1.1-1.3-2.1-2.5-3L927.8,721.8z M915.2,732.9c-4.4,2.2-11.5,2.2-15.9,0s-4.4-5.8,0-7.9
	c4.4-2.2,11.5-2.2,15.9,0C919.6,727.1,919.6,730.7,915.2,732.9z"/>
<path class="st17" d="M927.8,717.8l-6.5-3.2l-3.4,1.7c-1.9-0.6-4-1-6.1-1.3v-2.4h-9.2v2.4c-2.1,0.2-4.2,0.7-6.1,1.3l-3.4-1.7
	l-6.5,3.2l3.4,1.7c-1.2,1-2,2-2.5,3h-4.8v4.6h4.8c0.5,1.1,1.3,2.1,2.5,3l-3.4,1.7l6.5,3.2l3.4-1.7c1.9,0.6,4,1,6.1,1.3v2.4h9.2v-2.3
	c2.1-0.2,4.2-0.7,6.1-1.3l3.4,1.7l6.5-3.2l-3.4-1.7c1.2-1,2-2,2.5-3h4.8v-4.6h-4.8c-0.5-1.1-1.3-2.1-2.5-3L927.8,717.8z
	 M915.2,728.8c-4.4,2.2-11.5,2.2-15.9,0s-4.4-5.8,0-7.9c4.4-2.2,11.5-2.2,15.9,0C919.6,723.1,919.6,726.6,915.2,728.8z"/>
<g>
	
		<radialGradient id="SVGID_10_" cx="844.1422" cy="-414.6987" r="123.9553" gradientTransform="matrix(1 0 0 0.5 0 772.8574)" gradientUnits="userSpaceOnUse">
		<stop  offset="0.3014" style="stop-color:#000000"/>
		<stop  offset="1" style="stop-color:#FFFFFF;stop-opacity:0"/>
	</radialGradient>
	<ellipse class="st31" cx="842.9" cy="650.8" rx="19.1" ry="9.6"/>
	<path class="st30" d="M857,538.8h-27.5v109.9l0,0c0,0.1,0,0.1,0,0.2c0,3.8,6.1,6.9,13.7,6.9s13.7-3.1,13.7-6.9c0-0.1,0-0.1,0-0.2
		l0,0L857,538.8L857,538.8z"/>
	<ellipse class="st17" cx="843.3" cy="539.1" rx="13.7" ry="6.9"/>
	<ellipse class="st1" cx="843.3" cy="539.1" rx="7.9" ry="4"/>
</g>
<g>
	
		<radialGradient id="SVGID_11_" cx="844.1422" cy="-414.6987" r="123.9553" gradientTransform="matrix(1 0 0 0.5 0 772.8574)" gradientUnits="userSpaceOnUse">
		<stop  offset="0.3014" style="stop-color:#000000"/>
		<stop  offset="1" style="stop-color:#FFFFFF;stop-opacity:0"/>
	</radialGradient>
	<ellipse class="st32" cx="868.7" cy="663.3" rx="19.1" ry="9.6"/>
	<path class="st33" d="M882.8,584.6h-27.5v76.6l0,0c0,0.1,0,0.1,0,0.2c0,3.8,6.1,6.9,13.7,6.9s13.7-3.1,13.7-6.9c0-0.1,0-0.1,0-0.2
		l0,0L882.8,584.6L882.8,584.6z"/>
	<ellipse class="st34" cx="869.1" cy="584.8" rx="13.7" ry="6.9"/>
	<ellipse class="st1" cx="869.1" cy="584.8" rx="7.9" ry="4"/>
</g>
<g>
	
		<radialGradient id="SVGID_12_" cx="844.1422" cy="-414.6987" r="123.9553" gradientTransform="matrix(1 0 0 0.5 0 772.8574)" gradientUnits="userSpaceOnUse">
		<stop  offset="0.3014" style="stop-color:#000000"/>
		<stop  offset="1" style="stop-color:#FFFFFF;stop-opacity:0"/>
	</radialGradient>
	<ellipse class="st35" cx="895.3" cy="676.6" rx="19.1" ry="9.6"/>
	<path class="st28" d="M909.4,631.2h-27.5v43.3l0,0c0,0.1,0,0.1,0,0.2c0,3.8,6.1,6.9,13.7,6.9s13.7-3.1,13.7-6.9c0-0.1,0-0.1,0-0.2
		l0,0L909.4,631.2L909.4,631.2z"/>
	<ellipse class="st36" cx="895.7" cy="631.4" rx="13.7" ry="6.9"/>
	<ellipse class="st1" cx="895.7" cy="631" rx="7.9" ry="4"/>
</g>
<g>
	
		<linearGradient id="SVGID_13_" gradientUnits="userSpaceOnUse" x1="818.018" y1="-107.3233" x2="513.5811" y2="-259.4507" gradientTransform="matrix(1 0 0 1 0 735.748)">
		<stop  offset="1.489483e-02" style="stop-color:#005B97"/>
		<stop  offset="0.5436" style="stop-color:#1E9CD7"/>
		<stop  offset="0.784" style="stop-color:#0075BE"/>
	</linearGradient>
	<path class="st37" d="M490.5,537.6l25-2.4c8.5-0.8,17-1.4,25.4-1.9l-0.5,0.1l27.3-11l1-0.4l0.7,0.8l13.7,14.9l-1.7-0.3l34-15.9
		l1.1-0.5l0.7,1l16.1,20.9l-1.7-0.5l48.5-16.1l1.1-0.4l0.6,1l31.9,48.7l-1.5-0.7l31.9-5.7l-0.6,0.2l41-28.2l3.4-2.4v4.2l-0.5,141.9
		v2.8l-2.5-1.3c-49.2-24.6-98.5-49.4-147.7-74.3L490.5,537.6z M493.4,538.2l147,72.4c48.8,24.1,97.5,48.3,146.3,72.6l-2.5,1.6
		l-0.5-141.9l3.4,1.8l-41.8,27l-0.3,0.2l-0.3,0.1l-31.9,5.7l-1,0.2l-0.5-0.8l-31.9-48.7l1.7,0.6l-48.5,16.1l-1,0.3l-0.7-0.8
		l-16.1-20.9l1.8,0.4l-34,15.9l-1,0.5l-0.7-0.8l-13.8-14.9l1.7,0.4l-27.3,11l-0.2,0.1h-0.2c-7.9,0.5-15.7,0.9-23.6,1.2L493.4,538.2z
		"/>
</g>
<linearGradient id="SVGID_14_" gradientUnits="userSpaceOnUse" x1="853.29" y1="-20.8763" x2="476.5562" y2="-20.8763" gradientTransform="matrix(0.9269 0.4632 -1.154687e-02 1.0731 71.7751 281.1527)">
	<stop  offset="0" style="stop-color:#CCE0F4"/>
	<stop  offset="5.962355e-02" style="stop-color:#C3DCF2"/>
	<stop  offset="0.1588" style="stop-color:#A9D2EE"/>
	<stop  offset="0.2854" style="stop-color:#80C2E7"/>
	<stop  offset="0.4327" style="stop-color:#47ACDE"/>
	<stop  offset="0.5282" style="stop-color:#1E9CD7"/>
	<stop  offset="0.784" style="stop-color:#0075BE"/>
	<stop  offset="0.9944" style="stop-color:#005B97"/>
</linearGradient>
<polygon class="st38" points="490.9,539 539.9,535.9 567.2,524.9 581,539.7 614.9,523.8 631.1,544.7 679.6,528.5 711.5,577.3 
	743.4,571.6 784.8,544 784.8,685.9 "/>
<g>
	<path class="st39" d="M159.2,564.1v8c-6.6-3.3-10.7-7.8-10.7-12.9l0,0v-8.4h0.1L159.2,564.1z"/>
	
		<linearGradient id="SVGID_15_" gradientUnits="userSpaceOnUse" x1="153.6646" y1="-181.5644" x2="229.5458" y2="-169.5697" gradientTransform="matrix(1 0 0 1 0 735.748)">
		<stop  offset="0" style="stop-color:#C8C8C8"/>
		<stop  offset="0.9753" style="stop-color:#DCDCDC"/>
	</linearGradient>
	<path class="st40" d="M221.7,550.8v8.4l0,0c-0.1,10.1-16.4,18.2-36.6,18.2c-10.1,0-19.2-2-25.8-5.3v-8l-10.6-13.3h3.9
		c6.1-5.9,18.4-9.9,32.5-9.9c14.2,0,26.5,4,32.5,9.9L221.7,550.8L221.7,550.8z"/>
	<g>
		<path class="st41" d="M218.3,558.7c-8.4,9.2-30.1,13.2-48.5,9c-4-0.9-7.6-2.2-10.6-3.7l25.8-13l2.8-18.2c4.2,0.2,8.4,0.7,12.5,1.6
			C218.7,538.7,226.7,549.5,218.3,558.7z"/>
		<path class="st42" d="M185.1,551.1l-25.8,13c-7.1-3.5-10.9-8.3-10.8-13.3L185.1,551.1z"/>
		<path class="st43" d="M185.1,551.1l-36.6-0.3c0.1-2.5,1.2-4.9,3.3-7.3c6.6-7.2,21.2-11.2,36-10.6L185.1,551.1z"/>
	</g>
</g>
<g>
	<g>
		<g>
			<path class="st1" d="M435.9,529.4l-92.3,46.1c-5.5,2.8-14.4,2.8-20,0l-186.9-93.4c-5.5-2.8-5.5-7.2,0-10L229,426
				c5.5-2.8,14.4-2.8,20,0l186.9,93.4C441.4,522.2,441.4,526.7,435.9,529.4z"/>
		</g>
	</g>
	<g>
		
			<linearGradient id="SVGID_16_" gradientUnits="userSpaceOnUse" x1="530.0134" y1="-151.737" x2="250.3311" y2="-220.0561" gradientTransform="matrix(1 0 0 1 0 735.748)">
			<stop  offset="0" style="stop-color:#CCE0F4"/>
			<stop  offset="5.962355e-02" style="stop-color:#C3DCF2"/>
			<stop  offset="0.1588" style="stop-color:#A9D2EE"/>
			<stop  offset="0.2854" style="stop-color:#80C2E7"/>
			<stop  offset="0.4327" style="stop-color:#47ACDE"/>
			<stop  offset="0.5282" style="stop-color:#1E9CD7"/>
			<stop  offset="0.784" style="stop-color:#0075BE"/>
			<stop  offset="0.9944" style="stop-color:#005B97"/>
		</linearGradient>
		<path class="st44" d="M133.5,477.2c-0.4,2,1,4.1,4.1,5.7l186.9,93.4c5.5,2.8,14.4,2.8,20,0l92.3-46.1c2.8-1.4,4.2-3.3,4.1-5.2
			v-5.7c0.1,1.9-1.3,3.7-4.1,5.2l-92.3,46.1c-5.5,2.8-14.4,2.8-20,0l-186.9-93.4c-3.1-1.5-4.5-3.6-4.1-5.7V477.2L133.5,477.2z"/>
		<path class="st1" d="M436.6,524.5l-92.3,46.1c-5.5,2.8-14.4,2.8-20,0l-186.9-93.4c-5.5-2.8-5.5-7.2,0-10l92.3-46.1
			c5.5-2.8,14.4-2.8,20,0l186.9,93.4C442.1,517.2,442.1,521.7,436.6,524.5z"/>
		
			<linearGradient id="SVGID_17_" gradientUnits="userSpaceOnUse" x1="914.8425" y1="-1527.0459" x2="914.8425" y2="-1833.5063" gradientTransform="matrix(0.7071 -0.7071 0.7071 0.7071 792.8618 2303.3289)">
			<stop  offset="0" style="stop-color:#95FF28"/>
			<stop  offset="0.4663" style="stop-color:#C8CC33"/>
			<stop  offset="1" style="stop-color:#FF953F"/>
		</linearGradient>
		<path class="st45" d="M294.2,555.5l-156.7-78.3c-5.5-2.8-5.5-7.2,0-10l92.3-46.1c5.5-2.8,14.4-2.8,20,0l156.7,78.3L294.2,555.5z"
			/>
		<path class="st0" d="M380,539.7l-5.2,2.6c-4.1,2.1-10.8,2.1-14.9,0l-5.2-2.6c-4.1-2.1-4.1-5.4,0-7.5l5.2-2.6
			c4.1-2.1,10.8-2.1,14.9,0l5.2,2.6C384.1,534.3,384.1,537.6,380,539.7z"/>
		
			<linearGradient id="SVGID_18_" gradientUnits="userSpaceOnUse" x1="561.5747" y1="-278.2185" x2="-193.6382" y2="-250.8441" gradientTransform="matrix(1 0 0 1 0 735.748)">
			<stop  offset="0" style="stop-color:#FFFFFF"/>
			<stop  offset="0.1467" style="stop-color:#FFFFFF;stop-opacity:0.8533"/>
			<stop  offset="1" style="stop-color:#FFFFFF;stop-opacity:0"/>
		</linearGradient>
		<path class="st46" d="M433,512.5L249.8,421c-5.5-2.8-14.4-2.8-20,0l-92.2,46L433,512.5z"/>
		
			<linearGradient id="SVGID_19_" gradientUnits="userSpaceOnUse" x1="851.9371" y1="-1646.4681" x2="1038.8859" y2="-1484.3043" gradientTransform="matrix(0.7071 -0.7071 0.7071 0.7071 792.8618 2303.3289)">
			<stop  offset="0" style="stop-color:#FFFFFF"/>
			<stop  offset="0.1467" style="stop-color:#FFFFFF;stop-opacity:0.8533"/>
			<stop  offset="1" style="stop-color:#FFFFFF;stop-opacity:0"/>
		</linearGradient>
		<path class="st47" d="M349.3,509.6c-12.8,0-23.8,3.7-29,9c-9.6-5.2-23.3-8.5-38.6-8.5c-21.2,0-39.4,6.3-47.6,15.3l60.1,30.1
			l80.1-40C368.4,511.9,359.4,509.6,349.3,509.6z"/>
		<path class="st48" d="M298,467.9c14.6,7.3,15.3,18.9,2.2,26.6l-15.7-6.7c6.3-3.7,5.9-9.2-1.1-12.7c-7.3-3.7-19.2-3.7-26.5,0
			c-1.2,0.6-2.2,1.3-3,2L236,472c1.7-1.5,3.8-2.9,6.3-4.1C257.7,460.2,282.7,460.2,298,467.9z"/>
		<path class="st49" d="M300.3,494.5c-0.7,0.4-1.4,0.8-2.2,1.2c-8.7,4.3-20.4,6.2-31.7,5.7l2-10.3c5.4,0.3,11-0.6,15.1-2.7
			c0.4-0.2,0.7-0.4,1.1-0.6L300.3,494.5z"/>
		<path class="st39" d="M257,488.5c3.2,1.6,7.2,2.5,11.4,2.7l-2,10.3c-8.8-0.4-17.3-2.3-24-5.7c-12.9-6.4-15-16.2-6.3-23.7l17.9,5.1
			C249.8,480.7,250.8,485.4,257,488.5z"/>
		<ellipse class="st49" cx="270.2" cy="481.8" rx="8.4" ry="4.2"/>
		<ellipse class="st50" cx="269.6" cy="481.2" rx="64.8" ry="32.4"/>
		<ellipse class="st48" cx="208.9" cy="470.7" rx="14.1" ry="7"/>
	</g>
</g>
<g>
	
		<linearGradient id="SVGID_20_" gradientUnits="userSpaceOnUse" x1="244.8653" y1="-483.9481" x2="462.55" y2="-483.9481" gradientTransform="matrix(1 0 0 1 0 735.748)">
		<stop  offset="0" style="stop-color:#CCE0F4"/>
		<stop  offset="5.962355e-02" style="stop-color:#C3DCF2"/>
		<stop  offset="0.1588" style="stop-color:#A9D2EE"/>
		<stop  offset="0.2854" style="stop-color:#80C2E7"/>
		<stop  offset="0.4327" style="stop-color:#47ACDE"/>
		<stop  offset="0.5282" style="stop-color:#1E9CD7"/>
		<stop  offset="0.784" style="stop-color:#0075BE"/>
		<stop  offset="0.9944" style="stop-color:#005B97"/>
	</linearGradient>
	<polygon class="st51" points="320,251.8 300.6,261.5 281.1,251.8 300.6,242.1 	"/>
	
		<linearGradient id="SVGID_21_" gradientUnits="userSpaceOnUse" x1="281.1" y1="-326.548" x2="320" y2="-326.548" gradientTransform="matrix(1 0 0 1 0 735.748)">
		<stop  offset="0" style="stop-color:#CCE0F4"/>
		<stop  offset="5.962355e-02" style="stop-color:#C3DCF2"/>
		<stop  offset="0.1588" style="stop-color:#A9D2EE"/>
		<stop  offset="0.2854" style="stop-color:#80C2E7"/>
		<stop  offset="0.4327" style="stop-color:#47ACDE"/>
		<stop  offset="0.5282" style="stop-color:#1E9CD7"/>
		<stop  offset="0.784" style="stop-color:#0075BE"/>
		<stop  offset="0.9944" style="stop-color:#005B97"/>
	</linearGradient>
	<polygon class="st52" points="320,409.2 300.6,418.9 281.1,409.2 300.6,399.5 	"/>
	
		<linearGradient id="SVGID_22_" gradientUnits="userSpaceOnUse" x1="290.1351" y1="-482.4678" x2="291.8223" y2="-274.0846" gradientTransform="matrix(1 0 0 1 0 735.748)">
		<stop  offset="0" style="stop-color:#CCE0F4"/>
		<stop  offset="5.962355e-02" style="stop-color:#C3DCF2"/>
		<stop  offset="0.1588" style="stop-color:#A9D2EE"/>
		<stop  offset="0.2854" style="stop-color:#80C2E7"/>
		<stop  offset="0.4327" style="stop-color:#47ACDE"/>
		<stop  offset="0.5282" style="stop-color:#1E9CD7"/>
		<stop  offset="0.784" style="stop-color:#0075BE"/>
		<stop  offset="0.9944" style="stop-color:#005B97"/>
	</linearGradient>
	<polygon class="st53" points="281,251.8 281,409.2 300.6,419 300.6,261.6 	"/>
	
		<linearGradient id="SVGID_23_" gradientUnits="userSpaceOnUse" x1="307.9831" y1="-502.5986" x2="312.2144" y2="-319.8057" gradientTransform="matrix(1 0 0 1 0 735.748)">
		<stop  offset="0" style="stop-color:#CCE0F4"/>
		<stop  offset="5.962355e-02" style="stop-color:#C3DCF2"/>
		<stop  offset="0.1588" style="stop-color:#A9D2EE"/>
		<stop  offset="0.2854" style="stop-color:#80C2E7"/>
		<stop  offset="0.4327" style="stop-color:#47ACDE"/>
		<stop  offset="0.5282" style="stop-color:#1E9CD7"/>
		<stop  offset="0.784" style="stop-color:#0075BE"/>
		<stop  offset="0.9944" style="stop-color:#005B97"/>
	</linearGradient>
	<polygon class="st54" points="320.1,251.8 320.1,409.2 300.6,419 300.6,261.6 	"/>
	
		<linearGradient id="SVGID_24_" gradientUnits="userSpaceOnUse" x1="244.2476" y1="-515.598" x2="461.9323" y2="-515.598" gradientTransform="matrix(1 0 0 1 0 735.748)">
		<stop  offset="0" style="stop-color:#FFFFFF"/>
		<stop  offset="0.2704" style="stop-color:#F6F6F6"/>
		<stop  offset="0.4031" style="stop-color:#EFEFEF"/>
		<stop  offset="0.81" style="stop-color:#D6D6D6"/>
		<stop  offset="1" style="stop-color:#C8C8C8"/>
	</linearGradient>
	<polygon class="st55" points="389.9,220.2 370.5,229.9 351,220.2 370.5,210.4 	"/>
	
		<linearGradient id="SVGID_25_" gradientUnits="userSpaceOnUse" x1="351" y1="-358.1981" x2="389.9" y2="-358.1981" gradientTransform="matrix(1 0 0 1 0 735.748)">
		<stop  offset="0" style="stop-color:#FFFFFF"/>
		<stop  offset="0.2668" style="stop-color:#F6F6F6"/>
		<stop  offset="0.7089" style="stop-color:#DCDCDC"/>
		<stop  offset="1" style="stop-color:#C8C8C8"/>
	</linearGradient>
	<polygon class="st56" points="389.9,377.6 370.5,387.3 351,377.6 370.5,367.8 	"/>
	
		<linearGradient id="SVGID_26_" gradientUnits="userSpaceOnUse" x1="359.5529" y1="-573.6741" x2="361.2401" y2="-365.2909" gradientTransform="matrix(1 0 0 1 0 735.748)">
		<stop  offset="0" style="stop-color:#FFFFFF"/>
		<stop  offset="0.2668" style="stop-color:#F6F6F6"/>
		<stop  offset="0.7089" style="stop-color:#DCDCDC"/>
		<stop  offset="1" style="stop-color:#C8C8C8"/>
	</linearGradient>
	<polygon class="st57" points="350.9,220.2 350.9,377.6 370.5,387.4 370.5,229.9 	"/>
	
		<linearGradient id="SVGID_27_" gradientUnits="userSpaceOnUse" x1="377.8823" y1="-534.2286" x2="382.1138" y2="-351.4358" gradientTransform="matrix(1 0 0 1 0 735.748)">
		<stop  offset="0" style="stop-color:#FFFFFF"/>
		<stop  offset="0.2668" style="stop-color:#F6F6F6"/>
		<stop  offset="0.7089" style="stop-color:#DCDCDC"/>
		<stop  offset="1" style="stop-color:#C8C8C8"/>
	</linearGradient>
	<polygon class="st58" points="390,220.2 390,377.6 370.5,387.4 370.5,229.9 	"/>
	
		<linearGradient id="SVGID_28_" gradientUnits="userSpaceOnUse" x1="206.6378" y1="-443.998" x2="424.3225" y2="-443.998" gradientTransform="matrix(1 0 0 1 0 735.748)">
		<stop  offset="0" style="stop-color:#F3FFFF"/>
		<stop  offset="0.4205" style="stop-color:#F3FF7F"/>
		<stop  offset="0.5525" style="stop-color:#F5F876"/>
		<stop  offset="0.7718" style="stop-color:#F9E45C"/>
		<stop  offset="1" style="stop-color:#FFCA3B"/>
	</linearGradient>
	<polygon class="st59" points="359.1,291.8 339.7,301.5 320.2,291.8 339.7,282 	"/>
	
		<linearGradient id="SVGID_29_" gradientUnits="userSpaceOnUse" x1="320.2" y1="-344.848" x2="359.1" y2="-344.848" gradientTransform="matrix(1 0 0 1 0 735.748)">
		<stop  offset="0" style="stop-color:#F3FFFF"/>
		<stop  offset="0.4205" style="stop-color:#F3FF7F"/>
		<stop  offset="0.5525" style="stop-color:#F5F876"/>
		<stop  offset="0.7718" style="stop-color:#F9E45C"/>
		<stop  offset="1" style="stop-color:#FFCA3B"/>
	</linearGradient>
	<polygon class="st60" points="359.1,390.9 339.7,400.6 320.2,390.9 339.7,381.2 	"/>
	
		<linearGradient id="SVGID_30_" gradientUnits="userSpaceOnUse" x1="329.1006" y1="-488.2697" x2="330.2005" y2="-352.4426" gradientTransform="matrix(1 0 0 1 0 735.748)">
		<stop  offset="0" style="stop-color:#F3FFFF"/>
		<stop  offset="0.4205" style="stop-color:#F3FF7F"/>
		<stop  offset="0.5525" style="stop-color:#F5F876"/>
		<stop  offset="0.7718" style="stop-color:#F9E45C"/>
		<stop  offset="1" style="stop-color:#FFCA3B"/>
	</linearGradient>
	<polygon class="st61" points="320.1,291.8 320.1,390.9 339.7,400.7 339.7,301.5 	"/>
	
		<linearGradient id="SVGID_31_" gradientUnits="userSpaceOnUse" x1="346.858" y1="-501.4713" x2="351.0563" y2="-320.1052" gradientTransform="matrix(1 0 0 1 0 735.748)">
		<stop  offset="0" style="stop-color:#F3FFFF"/>
		<stop  offset="0.5921" style="stop-color:#F3FF7F"/>
		<stop  offset="0.6849" style="stop-color:#F5F876"/>
		<stop  offset="0.8393" style="stop-color:#F9E45C"/>
		<stop  offset="1" style="stop-color:#FFCA3B"/>
	</linearGradient>
	<polygon class="st62" points="359.2,291.8 359.2,390.9 339.7,400.7 339.7,301.5 	"/>
</g>
<linearGradient id="SVGID_32_" gradientUnits="userSpaceOnUse" x1="518.4751" y1="-267.6356" x2="642.9249" y2="-267.6356" gradientTransform="matrix(1 0 0 1 0 735.748)">
	<stop  offset="0" style="stop-color:#CCE0F4"/>
	<stop  offset="6.405089e-02" style="stop-color:#C3DCF2"/>
	<stop  offset="0.1706" style="stop-color:#A9D2EE"/>
	<stop  offset="0.3066" style="stop-color:#80C2E7"/>
	<stop  offset="0.4649" style="stop-color:#47ACDE"/>
	<stop  offset="0.5674" style="stop-color:#1E9CD7"/>
	<stop  offset="0.8652" style="stop-color:#0075BE"/>
	<stop  offset="0.9944" style="stop-color:#005B97"/>
</linearGradient>
<path class="st63" d="M593.9,498.8l-74.6-37.3c-1.1-0.6-1.1-1.5,0-2l44.1-22c1.1-0.6,3-0.6,4.1,0l74.6,37.3c1.1,0.6,1.1,1.5,0,2
	l-44.1,22C596.8,499.3,595,499.3,593.9,498.8z"/>
<text transform="matrix(0.668 -0.348 7.776555e-02 0.997 301.8137 272.1113)" class="st11 st64">58%</text>
<text transform="matrix(0.668 -0.348 7.776555e-02 0.997 340.9344 313.7315)" class="st11 st64">32%</text>
<text transform="matrix(0.668 -0.348 7.776555e-02 0.997 372.5655 242.1474)" class="st11 st64">57%</text>
<path class="st6" d="M668,412.2l-217.1-96.9c-3.7-1.6-6.6-7.8-6.6-13.7l1.7-182c0.1-5.9,3.1-9.4,6.8-7.8l217.1,96.9
	c3.7,1.6,6.6,7.8,6.6,13.7l-1.7,182C674.7,410.4,671.6,413.9,668,412.2z"/>
<path class="st6" d="M660.8,234l-120.2-54c-2-1.1-3.7-13-3.6-16.3l1.1-52.5c0-3.3,1.7-5.2,3.8-4.2l120.2,62.3c2,1.1,3.7,4.6,3.6,8
	l-1.1,52.5C664.5,233.2,662.8,235.1,660.8,234z"/>
<g>
	<g>
		<path class="st7" d="M647.3,407.2L435.5,292.5c-2.1-1.1-3.9-4-3.8-6.4l-5.6-165.9c0-2.5,9.2-5.9,11.3-4.8l218.3,109
			c2.1,1.1,3.9,4,3.8,6.4L657.7,399C657.6,401.5,649.4,408.3,647.3,407.2z"/>
		<g>
			<path class="st1" d="M645.2,406.5l-218.3-109c-2.1-1.1-3.9-4-3.8-6.4l1.8-168.2c0-2.5,1.8-3.6,3.9-2.6l218.3,109
				c2.1,1.1,3.9,4,3.8,6.4l-1.8,168.2C649.1,406.4,647.3,407.5,645.2,406.5z"/>
			<path class="st28" d="M650.8,251l0.2-15.3c0-2.5-1.7-5.4-3.8-6.4l-218.3-109c-2.1-1.1-3.9,0.1-3.9,2.6l-0.2,15.3L650.8,251z"/>
			<linearGradient id="SVGID_33_" gradientUnits="userSpaceOnUse" x1="423.196" y1="328.234" x2="650.2" y2="328.234">
				<stop  offset="0" style="stop-color:#CCE0F4"/>
				<stop  offset="6.405089e-02" style="stop-color:#C3DCF2"/>
				<stop  offset="0.1706" style="stop-color:#A9D2EE"/>
				<stop  offset="0.3066" style="stop-color:#80C2E7"/>
				<stop  offset="0.4649" style="stop-color:#47ACDE"/>
				<stop  offset="0.5674" style="stop-color:#1E9CD7"/>
				<stop  offset="0.8652" style="stop-color:#0075BE"/>
				<stop  offset="0.9944" style="stop-color:#005B97"/>
			</linearGradient>
			<path class="st65" d="M650.2,307.6l-1,96.3c0,2.5-1.8,3.6-3.9,2.6L427,297.5c-2.1-1.1-3.9-4-3.8-6.4l0.3-30.7l7.5-7.2
				c7.1-6.8,20.2-1.7,28.7,11.1c4.4,6.7,9.9,11.7,15.4,14.4c7.3,3.6,14.5,3.4,19.2-1.6l22.7-24c8.5-8.9,25.5,0,33.2,17.4l10.9,24.8
				c8.6,19.5,28.3,27.6,35.2,14.5l9.6-18C614.8,274.9,638.9,285.3,650.2,307.6z"/>
			
				<ellipse transform="matrix(0.8716 -0.4902 0.4902 0.8716 -10.2667 230.4006)" class="st1" cx="434.7" cy="134.8" rx="3.3" ry="5.3"/>
			
				<ellipse transform="matrix(0.8716 -0.4902 0.4902 0.8716 -11.9237 238.2729)" class="st1" cx="448.9" cy="141.9" rx="3.3" ry="5.3"/>
			
				<ellipse transform="matrix(0.8716 -0.4902 0.4902 0.8716 -13.5808 246.1453)" class="st1" cx="463.1" cy="149" rx="3.3" ry="5.3"/>
			<path class="st66" d="M497.3,193.5l-60.6-30.3c-2-1-3.5-3.6-3.5-5.9l0,0c0-2.3,1.6-3.3,3.6-2.3l60.6,30.3c2,1,3.5,3.6,3.5,5.9
				l0,0C500.9,193.5,499.3,194.5,497.3,193.5z"/>
			<path class="st66" d="M508.5,214.5l-72-36c-2-1-3.5-3.6-3.5-5.9l0,0c0-2.3,1.6-3.3,3.6-2.3l72,36c2,1,3.5,3.6,3.5,5.9l0,0
				C512.1,214.5,510.5,215.5,508.5,214.5z"/>
			<path class="st66" d="M473.8,212.6l-37.5-18.7c-2-1-3.5-3.6-3.5-5.9l0,0c0-2.3,1.6-3.3,3.6-2.3l37.5,18.7c2,1,3.5,3.6,3.5,5.9
				l0,0C477.4,212.5,475.8,213.6,473.8,212.6z"/>
		</g>
	</g>
	<path class="st67" d="M645,172l-101.2-50.5c-6.4-3.2-11.6,0.2-11.7,7.6l-0.4,34.4c-0.1,7.4,5,16,11.4,19.1l44.3,22.1l6.2,10.5
		l6.4-4.2l44.3,22.1c6.4,3.2,11.6-0.2,11.7-7.6l0.4-34.4C656.5,183.8,651.4,175.2,645,172z"/>
	<g>
		<path class="st68" d="M640.6,174.6l-101.2-50.5c-6.4-3.2-11.6,0.2-11.7,7.6l-0.4,34.4c-0.1,7.4,5,16,11.4,19.1l44.3,22.1l6.2,10.5
			l6.4-4.2l44.3,22.1c6.4,3.2,11.6-0.2,11.7-7.6l0.4-34.4C652.1,186.3,647,177.7,640.6,174.6z"/>
		<text transform="matrix(0.8637 0.4315 -1.075940e-02 0.9999 551.7202 178.0402)" class="st1 st11 st69">  +1</text>
	</g>
	
		<linearGradient id="SVGID_34_" gradientUnits="userSpaceOnUse" x1="587.5927" y1="-436.998" x2="589.5927" y2="-436.998" gradientTransform="matrix(1 0 0 1 0 735.748)">
		<stop  offset="0" style="stop-color:#FFCA3B"/>
		<stop  offset="1" style="stop-color:#F3555C"/>
	</linearGradient>
	<line class="st70" x1="588.6" y1="220" x2="588.6" y2="377.5"/>
</g>
</svg>
